<svg width="40" height="40" viewBox="0 0 40 40" fill="none" xmlns="http://www.w3.org/2000/svg">
<path fill-rule="evenodd" clip-rule="evenodd" d="M20.0013 3.33301C10.7962 3.33301 3.33398 10.7966 3.33398 20.0004C3.33398 29.2055 10.7962 36.6663 20.0013 36.6663C29.2064 36.6663 36.6673 29.2055 36.6673 20.0004C36.6673 10.7966 29.2058 3.33301 20.0013 3.33301ZM28.3969 16.6398C28.4057 16.8198 28.4091 17.0006 28.4091 17.1833C28.4091 22.7341 24.1842 29.1337 16.4587 29.1337C14.087 29.1337 11.8785 28.4386 10.0199 27.2473C10.3488 27.2859 10.6825 27.3056 11.0216 27.3056C12.9899 27.3056 14.8011 26.6341 16.2381 25.5079C14.4004 25.4733 12.8498 24.2584 12.3151 22.59C12.5709 22.6401 12.8342 22.6651 13.1049 22.6651C13.488 22.6651 13.8589 22.615 14.2116 22.5182C12.2893 22.1324 10.8416 20.4335 10.8416 18.4003C10.8416 18.382 10.8416 18.3644 10.8422 18.3461C11.4081 18.6609 12.0558 18.8497 12.7449 18.872C11.6172 18.1174 10.8761 16.8334 10.8761 15.3755C10.8761 14.6059 11.0832 13.8837 11.4446 13.2637C13.5165 15.8046 16.6117 17.4771 20.1029 17.6517C20.0311 17.3451 19.9939 17.0236 19.9939 16.6946C19.9939 14.3758 21.8742 12.4948 24.1944 12.4948C25.4026 12.4948 26.4936 13.0051 27.2598 13.8207C28.2169 13.6333 29.1157 13.2827 29.9273 12.8014C29.6125 13.7828 28.9472 14.6059 28.0795 15.125C28.9303 15.0235 29.7398 14.7974 30.4924 14.4637C29.9307 15.3078 29.2179 16.0476 28.3969 16.6398Z" fill="white"/>
</svg>
