<svg width="40" height="40" viewBox="0 0 40 40" fill="none" xmlns="http://www.w3.org/2000/svg">
<path fill-rule="evenodd" clip-rule="evenodd" d="M20.0013 3.33301C10.7962 3.33301 3.33398 10.7966 3.33398 20.0004C3.33398 29.2055 10.7962 36.6663 20.0013 36.6663C29.2064 36.6663 36.6687 29.2055 36.6687 20.0004C36.6687 10.7966 29.2058 3.33301 20.0013 3.33301ZM24.4123 19.9306H21.5263C21.5263 24.5427 21.5263 30.2234 21.5263 30.2234H17.2486C17.2486 30.2234 17.2486 24.6009 17.2486 19.9306H15.214V16.2966H17.2486V13.9419C17.2486 12.2566 18.0486 9.62565 21.5662 9.62565L24.7338 9.63783V13.1676C24.7338 13.1676 22.8075 13.1676 22.4339 13.1676C22.0583 13.1676 21.5269 13.3551 21.5269 14.1565V16.2973H24.788L24.4123 19.9306Z" fill="white"/>
</svg>
