<svg width="40" height="40" viewBox="0 0 40 40" fill="none" xmlns="http://www.w3.org/2000/svg">
<path fill-rule="evenodd" clip-rule="evenodd" d="M3.33398 19.9997C3.33398 10.7856 10.7866 3.33301 20.0007 3.33301C29.2147 3.33301 36.7351 10.7856 36.6673 19.9997C36.6673 29.2138 29.2147 36.6663 20.0007 36.6663C10.7866 36.6663 3.33398 29.2138 3.33398 19.9997ZM27.3855 27.791C28.334 26.8425 28.876 25.4875 28.876 23.9292V16.4766C28.876 14.9184 28.4017 13.6311 27.4532 12.6826C26.5047 11.7341 25.2175 11.1921 23.6592 11.1921H16.2066C13.0223 11.1921 10.9221 13.3601 10.9221 16.4766V23.9292C10.9221 25.4875 11.3963 26.8425 12.4126 27.791C13.3611 28.7395 14.7161 29.2138 16.2066 29.2138H23.5914C25.082 29.2138 26.437 28.7395 27.3855 27.791ZM24.6754 16.4089C24.0657 16.4089 23.5914 15.9346 23.5914 15.3249C23.5914 14.7151 24.0657 14.2409 24.6754 14.2409C25.2852 14.2409 25.7595 14.7151 25.7595 15.3249C25.7595 15.9346 25.2852 16.4089 24.6754 16.4089ZM19.8652 15.5281C22.3719 15.5281 24.5399 17.5607 24.5399 20.1352C24.5399 22.7097 22.4397 24.7422 19.8652 24.7422C17.2906 24.7422 15.2581 22.642 15.2581 20.1352C15.2581 17.5607 17.3584 15.5281 19.8652 15.5281ZM19.8652 17.1948C18.2516 17.1948 16.9248 18.5082 16.9248 20.1352C16.9248 21.7487 18.2382 23.0756 19.8652 23.0756C21.5398 23.0756 22.8733 21.7687 22.8733 20.1352C22.8733 18.5281 21.4991 17.1948 19.8652 17.1948Z" fill="white"/>
</svg>
