<svg width="40" height="40" viewBox="0 0 40 40" fill="none" xmlns="http://www.w3.org/2000/svg">
<path fill-rule="evenodd" clip-rule="evenodd" d="M20.0007 3.33301C10.7959 3.33301 3.33398 10.7949 3.33398 19.9997C3.33398 29.2058 10.7959 36.6663 20.0007 36.6663C29.204 36.6663 36.666 29.2058 36.666 19.9997C36.666 10.7956 29.2034 3.33301 20.0007 3.33301ZM29.2832 28.0951C29.2832 28.8369 28.6673 29.4366 27.9086 29.4366H12.0589C11.2988 29.4366 10.6842 28.8362 10.6842 28.0951V12.0619C10.6842 11.3215 11.2988 10.7205 12.0589 10.7205H27.9079C28.6666 10.7205 29.2825 11.3222 29.2825 12.0619V28.0951H29.2832ZM20.6856 19.1347C21.0592 18.5581 21.7272 17.7398 23.2169 17.7398C25.0646 17.7398 26.4514 18.9465 26.4521 21.5428V26.3868H23.6433V21.8657C23.6433 20.73 23.2372 19.9543 22.2193 19.9543C21.4443 19.9543 20.982 20.4795 20.7783 20.9831C20.7039 21.1645 20.6856 21.4142 20.6856 21.668V26.3875H17.8768C17.8768 26.3875 17.914 18.73 17.8768 17.9381H20.6856V19.1347ZM20.6856 19.1347C20.6809 19.1442 20.6741 19.1543 20.6673 19.1624H20.6856V19.1347ZM14.936 13.8623C13.9756 13.8623 13.3462 14.4944 13.3462 15.3235C13.3462 16.1337 13.9553 16.7841 14.8988 16.7841H14.9171C15.8964 16.7841 16.5062 16.1337 16.5062 15.3235C16.488 14.4944 15.8971 13.8623 14.936 13.8623ZM16.3228 17.9381H13.5133V26.3875H16.3228V17.9381Z" fill="white"/>
</svg>
